PathFileType	4	(X/Y/Z)	regression/subject18/trials/walk2/markers.trc
DataRate	CameraRate	NumFrames	NumMarkers	Units	OrigDataRate	OrigDataStartFrame	OrigNumFrames
200.00000000000426	200.00000000000426	4	64	m	200.00000000000426	80	215
Frame#	Time	CLAV			C7			RACR			RASH			RPSH			RLEL			RMEL			RUA1			RUA2			RUA3			RFAsuperior			RFAradius			RFAulna			RASI			RPSI			RCAL			RTOE			RMT5			RTH1			RTH2			RTH3			RTB1			RTB2			RTB3			RLFC			RMFC			RLMAL			RMMAL			RHJC			RKJC			REJC			RAJC			RSJC			LACR			LASH			LPSH			LLEL			LMEL			LUA1			LUA2			LUA3			LFAsuperior			LFAradius			LFAulna			LASI			LPSI			LCAL			LTOE			LMT5			LTH1			LTH2			LTH3			LTB1			LTB2			LTB3			LLFC			LMFC			LLMAL			LMMAL			LHJC			LKJC			LEJC			LAJC			LSJC			
		X1	Y1	Z1	X2	Y2	Z2	X3	Y3	Z3	X4	Y4	Z4	X5	Y5	Z5	X6	Y6	Z6	X7	Y7	Z7	X8	Y8	Z8	X9	Y9	Z9	X10	Y10	Z10	X11	Y11	Z11	X12	Y12	Z12	X13	Y13	Z13	X14	Y14	Z14	X15	Y15	Z15	X16	Y16	Z16	X17	Y17	Z17	X18	Y18	Z18	X19	Y19	Z19	X20	Y20	Z20	X21	Y21	Z21	X22	Y22	Z22	X23	Y23	Z23	X24	Y24	Z24	X25	Y25	Z25	X26	Y26	Z26	X27	Y27	Z27	X28	Y28	Z28	X29	Y29	Z29	X30	Y30	Z30	X31	Y31	Z31	X32	Y32	Z32	X33	Y33	Z33	X34	Y34	Z34	X35	Y35	Z35	X36	Y36	Z36	X37	Y37	Z37	X38	Y38	Z38	X39	Y39	Z39	X40	Y40	Z40	X41	Y41	Z41	X42	Y42	Z42	X43	Y43	Z43	X44	Y44	Z44	X45	Y45	Z45	X46	Y46	Z46	X47	Y47	Z47	X48	Y48	Z48	X49	Y49	Z49	X50	Y50	Z50	X51	Y51	Z51	X52	Y52	Z52	X53	Y53	Z53	X54	Y54	Z54	X55	Y55	Z55	X56	Y56	Z56	X57	Y57	Z57	X58	Y58	Z58	X59	Y59	Z59	X60	Y60	Z60	X61	Y61	Z61	X62	Y62	Z62	X63	Y63	Z63	X64	Y64	Z64	

81	2.84	1.290558399181954	1.447189823583107	-0.4772309739122433	1.182062985838534	1.526275284301736	-0.4762591347773648	1.260402143771677	1.498494107738842	-0.3534195289565606	1.300217621845445	1.437738322387448	-0.3156140597434516	1.203756797347142	1.461113656529356	-0.3145779581694027	1.189482364545073	1.18618391021584	-0.1967271661572683	1.174918150188179	1.160460344404344	-0.273656046420464	1.241249933757046	1.405901345967746	-0.2824612916364336	1.198692539601811	1.261476589459578	-0.2388860196254093	1.244716494127209	1.321633656676137	-0.2576683610813247	1.23781423700869	1.109982263646609	-0.2242037129141961	1.326973072489533	0.9859140174661216	-0.1972807384833145	1.273207008744913	0.9520288602432021	-0.2012893553753903	1.270007978774529	1.035469260880042	-0.3428293487433856	1.11403723323635	1.067363544895925	-0.4276226165728067	0.9584302339470995	0.05548413264087705	-0.3942970357886688	1.207292717315082	0.04843872627452307	-0.4553421354918468	1.152371663088151	0.01241507741177619	-0.3588488825862021	1.214149624767613	0.780434138289298	-0.3315852703141596	1.271433364726511	0.6912810701995121	-0.4061921844097761	1.192289702090236	0.6210837603726758	-0.3377472538375629	1.123354779305301	0.3389454937790248	-0.3622155526250019	1.133661308784419	0.2494090369269458	-0.4185584249564538	1.094646708053877	0.1836125919441783	-0.3592135715137658	1.171299793782158	0.5111733431342681	-0.3495975720945748	1.160453231940795	0.5138162550905303	-0.4613655037808279	1.04794857162688	0.08669294211940415	-0.3589749191875125	1.046966616895685	0.08725790359560659	-0.4456671490747278	1.199151225972948	0.9438091160233091	-0.3985116538233515	1.167097387333303	0.5110257242086258	-0.4078407431566415	1.185079191884302	1.167314395639804	-0.2399893211874055	1.03190192652869	0.07824252006461058	-0.407578907139351	1.255030548609215	1.448688497666225	-0.3151286979610884	1.257526628344623	1.497587715402356	-0.6006803879677246	1.296457332440836	1.436553040101274	-0.6389551830657431	1.192279641982669	1.461798400974535	-0.6378361933657701	1.184558837330788	1.178543239928409	-0.7406180635429488	1.173498248633585	1.156618876900902	-0.6619487847075561	1.236757785517042	1.402944312110016	-0.6683311236493493	1.194445844673272	1.255995055831958	-0.70274132797774	1.240367126094698	1.31756525267258	-0.6889500172916133	1.211938630388488	1.091451716209254	-0.7159524867211989	1.257232404733947	0.9476526617525817	-0.7525226952209852	1.195520258359628	0.9322653093530533	-0.7493758116821045	1.265989293798821	1.043488481658378	-0.6135862072405311	1.112629517269956	1.070172619306073	-0.522466764601605	1.227816866872312	0.1182654560504811	-0.5781756537245223	1.473207688390889	0.07415309983228671	-0.5186263269438243	1.413986483189994	0.05038957047420851	-0.6163663743046579	1.293809778984744	0.820571190343005	-0.6359961371216706	1.397668300132865	0.7795149558989188	-0.5702414320233364	1.365022752228097	0.6762273899843616	-0.6346000918360449	1.38094631558414	0.3952036231127778	-0.6116246098985632	1.39670664349259	0.3063322304182813	-0.5554907650022336	1.360412606392305	0.2385754237578925	-0.6143540039108932	1.409968029611586	0.5734669359111566	-0.625571402524477	1.409951595614803	0.5710486452151957	-0.5132733391358166	1.318879322394027	0.1393329099951761	-0.6140358762329241	1.319035855282018	0.1398434716211099	-0.5273378891532774	1.196734334071535	0.9486319846661531	-0.5613485177501284	1.416184914009328	0.5693460691778013	-0.5664656779762606	1.182182909623815	1.161860401790719	-0.6963111967289854	1.303955097200571	0.1300487707458679	-0.5652268160349614	1.251270259204606	1.447503215380051	-0.6384698212833798	
82	2.845	1.296697382461647	1.446513330628927	-0.4776473853928921	1.188241990509376	1.525651221992318	-0.4764935257927714	1.266768891119477	1.49782548725514	-0.3537839476743106	1.306616863474483	1.437048395993634	-0.3160470224244177	1.210169189290764	1.460470341274356	-0.3148515980528296	1.196635287284663	1.185562043906994	-0.1965726546799623	1.18195960863921	1.159700274469744	-0.273433985232529	1.247805088253787	1.405254112633331	-0.2827296014382464	1.205613984953224	1.26081143581462	-0.2388585365287961	1.251483936975255	1.321028892496367	-0.2578232112979205	1.2454768293757	1.109751881133732	-0.2242233495210369	1.335813474406424	0.9864563467946688	-0.1976794993209233	1.282334139230138	0.9521021164767951	-0.2015278844847209	1.275682906442471	1.034827801560622	-0.3428420696741251	1.119882622162568	1.066877875192095	-0.427889593355487	0.958521707082879	0.05577751082175798	-0.3944630344491366	1.207443906096247	0.04828851780557079	-0.4552111323508001	1.152342167127258	0.0123525048061665	-0.3587882374378349	1.218193314884433	0.7797099006499815	-0.3316063991569794	1.274555233627662	0.6899944877231128	-0.4062412894115678	1.194764421246524	0.6205818294752907	-0.3377474991968805	1.124144850738505	0.3388658676715965	-0.3622102972042134	1.134278200537411	0.2492973323087008	-0.4185335926767365	1.095018531036049	0.1836104490489685	-0.35922900102538	1.172688275548628	0.5108825089208742	-0.3495800378982539	1.161804379990133	0.5136266524870752	-0.4613419005096557	1.048061466109386	0.08681587997137852	-0.3590369765452831	1.047182564990841	0.08737596390312913	-0.4457303441012542	1.204763490828973	0.9432212721913664	-0.398532831365087	1.168400294670851	0.5108247167368477	-0.4077985564750995	1.192177806203752	1.166622025755308	-0.2397984241062493	1.032049249043571	0.07840413922369044	-0.4076590252358182	1.26143595050312	1.448020406260388	-0.3154870258775473	1.263487748005164	1.496933890191842	-0.6010398104754133	1.302326137863457	1.435882461372397	-0.6393816122412442	1.198162649745041	1.461178162275577	-0.6380905539199292	1.189078368224388	1.178204954183708	-0.7408925978314618	1.178462325944496	1.156205725528816	-0.6621829838451601	1.242325750530495	1.402373133917207	-0.6686477603708947	1.199409889290649	1.255580573175291	-0.7029787869421411	1.245579542289191	1.317012229945674	-0.6894005630059939	1.216247530978077	1.090960535138102	-0.7165251203483428	1.26068671415859	0.9470298226472775	-0.7536220637121896	1.198924709647978	0.9319136261190234	-0.7501553792226124	1.272062012066004	1.042579645868087	-0.6136123268808876	1.118614249334842	1.069593289579284	-0.5227384348543063	1.246577847742874	0.1121071460996895	-0.5790978481343249	1.493155048062786	0.07457705733970288	-0.5199382817331164	1.434483128434416	0.04942365249699959	-0.6176617968307524	1.299501276030913	0.8197042626367503	-0.636030271396882	1.403241557764713	0.7784337758741889	-0.5702230612102729	1.370470238883131	0.6752400099333631	-0.6346682122548334	1.391208459717013	0.3934127455194322	-0.6121036849004405	1.409761702203953	0.3049278575298996	-0.5562134110704874	1.375429610445374	0.2362406452415	-0.6151752395376997	1.415235825300283	0.5723986535030021	-0.6256680016246996	1.415131657738448	0.5699128740647978	-0.5133714589775029	1.33692608599373	0.1357834564604894	-0.6150227604829694	1.337228859395607	0.1360935545707285	-0.5283242120129366	1.202585835614081	0.9478833369814611	-0.561377753458393	1.421233390526413	0.5684367277813094	-0.5665867799537154	1.186941348885116	1.161469894842154	-0.6965932580525708	1.322381425612499	0.1259355077252248	-0.5662096182286941	1.257145224892094	1.446854471639152	-0.6388216156943738	
83	2.85	1.302854190364633	1.445777408209096	-0.4780714741006049	1.194437968658419	1.524966228031921	-0.4767437049345113	1.273142698629394	1.49709560442158	-0.3541583060695992	1.313020771221495	1.436297330504257	-0.3164873561831926	1.216586104417346	1.459764559976737	-0.3151402871913279	1.203766190287546	1.184889880218738	-0.1964251025297906	1.188980184570331	1.15888870089669	-0.2732182240006242	1.254359969953805	1.40454773038608	-0.2830084230143408	1.212521458604256	1.260093280940081	-0.2388394585271625	1.25824292834702	1.320365983213047	-0.2579863131538654	1.253109029154655	1.109472077470046	-0.2242490473916265	1.344606499268081	0.9869538036689928	-0.1980849545454906	1.291416436292034	0.9521363876714268	-0.2017764642443339	1.281386021200632	1.034127149995334	-0.3428802323975001	1.125752210748863	1.066335106574636	-0.4281725630202586	0.9586104982420236	0.05607556737371547	-0.3946315190605746	1.207590443484305	0.04812988772878697	-0.4550842329686212	1.15230725080538	0.01228627827370396	-0.3587308334460663	1.222266367924427	0.7789439155490783	-0.3316423743491107	1.277706541903298	0.6886778064216486	-0.4063036407230401	1.19728022587707	0.6200520221465413	-0.3377602268416157	1.124966483365486	0.3387741439857356	-0.3622134026365519	1.134913736620224	0.2491719509501859	-0.4185163339456111	1.095402404090755	0.1836011382255183	-0.3592504416209327	1.174126513593739	0.5105729773019041	-0.3495733745382092	1.163206442116832	0.5134169741686423	-0.4613292117977064	1.048174459691701	0.08693836918749731	-0.3591028862545564	1.047396566205007	0.08749221019257608	-0.44579725908951	1.21039686606227	0.9425748956674852	-0.398571391947202	1.169755230931841	0.5106039025864224	-0.4077675640656847	1.199254639832455	1.165878361314999	-0.2396138583480747	1.032194544994084	0.07856658935602473	-0.4077424557977186	1.267845951557092	1.44729055415064	-0.3158563217139536	1.269476233410257	1.49622158331386	-0.601408818010177	1.308226162858009	1.435154379824932	-0.6398149487208712	1.204076722709528	1.46049898765521	-0.6383601142096573	1.193638234151322	1.177815314798782	-0.7411826826213472	1.183463824750244	1.155736574081251	-0.6624370138475116	1.247927135840602	1.401745629387382	-0.6689753254559639	1.204411680739933	1.255112083873829	-0.7032310537078801	1.250826596689297	1.316404900003346	-0.6898631913078237	1.220616626178394	1.090426350150407	-0.7171080540632565	1.2642454993876	0.9463809262759351	-0.7547180459553984	1.202440860323858	0.9315166513811964	-0.7509361916411381	1.278144434656117	1.041601088010465	-0.6136631094803937	1.124616706681551	1.068953172419393	-0.5230258251694226	1.265264054487426	0.106251873885392	-0.5800231500150057	1.51284338494428	0.07524702782367866	-0.5212706842970223	1.454736197559891	0.04873650071419001	-0.6189728851819012	1.305157042533788	0.8187352643762085	-0.6360760894106717	1.408757042127242	0.7772082650910888	-0.5702092809334028	1.375823944468272	0.6741227246223492	-0.6347451050026517	1.401309576138812	0.3916283822475284	-0.6125920438445203	1.42264025690713	0.3036145162354929	-0.5569495927333228	1.390277751751215	0.2340590006503186	-0.6160073727828812	1.42036791190794	0.5711828398367007	-0.6257717446428921	1.42016625008666	0.568628038949016	-0.513476883826628	1.354825641344846	0.1324846969974083	-0.6160186867153009	1.355295745458568	0.1326022723382402	-0.5293204092379312	1.208447331745814	0.9470698238267284	-0.5614239038059667	1.426128462936938	0.5673730433139988	-0.5667170349880892	1.191738324479856	1.161025541491553	-0.6968932434377277	1.34068457931879	0.1220885366734891	-0.5672006335799242	1.263051343193605	1.446147603471315	-0.6391839142516322	
84	2.855	1.309029679334093	1.444983422058887	-0.4785042816302449	1.200652198073667	1.524222301474554	-0.477010685454319	1.27952490205272	1.496306239861061	-0.3545436439038371	1.319430399919088	1.435486747541127	-0.316936040359958	1.223008698365273	1.458998497234174	-0.3154448960180146	1.210877673114726	1.184168943021598	-0.1962850256863926	1.195982768762605	1.158026945669425	-0.2730092630251966	1.260915900194836	1.40378402215066	-0.2832986218481567	1.219417137869261	1.259323678465587	-0.2388294387164786	1.264995309638424	1.319646781173024	-0.2581583552600635	1.260713329135762	1.109143933170276	-0.2242807219282345	1.353353968553252	0.9874068025944137	-0.1984958974323735	1.300455419720888	0.9521323348865766	-0.2020339702635494	1.287116191320188	1.033371271042491	-0.3429429452883032	1.131645096446024	1.065736695269196	-0.4284720927122508	0.9586979748814377	0.05638318369159852	-0.3948004629544737	1.207733080858846	0.04796349084842792	-0.4549611007500071	1.152267616221226	0.01221720919622996	-0.3586763204798553	1.22637137930912	0.778139018189752	-0.3316921522212368	1.280892246825771	0.6873344149752207	-0.4063774056830456	1.199842301119461	0.6194964564695552	-0.3377843459012254	1.125824985034585	0.3386723364224665	-0.3622237139140158	1.135571983439278	0.2490347352754445	-0.4185053041615624	1.095801369007258	0.1835872888898221	-0.3592764863279373	1.175621547145887	0.5102462586211096	-0.3495765237374833	1.164667581992548	0.5131883000853565	-0.4613265057520326	1.048289215121417	0.08706384325432259	-0.3591711363252778	1.047610434221498	0.08760989412989323	-0.4458663912376009	1.216051989438089	0.9418727823514317	-0.398626753077214	1.171170070027828	0.5103643422369335	-0.4077468715286306	1.206312487967329	1.165084836420805	-0.2394361152147804	1.032339449645984	0.0787334405626941	-0.4078277028801411	1.274261653826203	1.446500826684835	-0.3162375137929746	1.275493031667656	1.495452114573502	-0.6017885367250414	1.314157954030927	1.43436981447278	-0.640256284818456	1.210022516352806	1.459762504141271	-0.6386458489291571	1.198239061810999	1.177374826635734	-0.7414876480738508	1.188502048748405	1.155212851806477	-0.6627100675241946	1.253562733001509	1.401062826925989	-0.6693146406587631	1.209451697349481	1.254590456675495	-0.7034980826661181	1.256108940377342	1.315744050860734	-0.690337798927295	1.225045164864453	1.089849254702935	-0.7177001014948768	1.267906353052466	0.9457044407351438	-0.7558087010507609	1.206065738884261	0.9310737858738808	-0.7517166505097994	1.284237573056235	1.040555858159712	-0.6137377558348026	1.130636737513732	1.06825340360986	-0.5233295350664705	1.283843988001885	0.1007166400167487	-0.5809438499691424	1.532246507778822	0.07616461031790539	-0.5226166386278395	1.474716080230982	0.0483299037716946	-0.6202918778072024	1.310783948271929	0.8176704950324268	-0.6361330457107121	1.41422287854125	0.7758489419955626	-0.5701994924112387	1.381096259223529	0.6728849609638882	-0.6348302580428806	1.411249197939366	0.3898599412561279	-0.6130866546686597	1.43533311121943	0.3023999274252279	-0.557695030573463	1.404940782791157	0.2320386684566741	-0.6168450304190773	1.425380610257063	0.5698309278799221	-0.6258821504349877	1.425071599306396	0.5672056553354842	-0.5135891591260472	1.372551198908686	0.1294468715643862	-0.6170167545468473	1.373209344737095	0.1293823894080252	-0.5303196448747161	1.214320749191226	0.9461936909380904	-0.5614864418835921	1.430887231314023	0.5661658099561888	-0.5668560611191804	1.196573699147407	1.160528348244019	-0.69721030284332	1.35883633306642	0.118520789799188	-0.5681928332702568	1.268989207938042	1.445383893616488	-0.6395577582514727	
